# xmcd
#
# Track frame offsets: 
#        150
#        12347
#        40026
#        67411
#        103010
#        115252
#        134332
#        166946
#        180931
#        195990
#
# Disc length: 3040 seconds
#
# Revision: 0
# Processed by: cddbd v1.4PL0 Copyright (c) Steve Scherf et al.
# Submitted via: ExactAudioCopy v0.90b4
#
DISCID=800bde0a
DTITLE=J.C. Rico - Mississippi Seven
DYEAR=1996
DGENRE=Blues
TTITLE0=Intro
TTITLE1=Mississippi
TTITLE2=Blues Pay
TTITLE3=Standing Too Close
TTITLE4=Dead Millionaire
TTITLE5=I Ain't The Devil
TTITLE6=Hoochie Coochie Man
TTITLE7=Devil Woman
TTITLE8=God Bless The Child
TTITLE9=Leavin' Town
EXTD=
EXTT0=
EXTT1=
EXTT2=
EXTT3=
EXTT4=
EXTT5=
EXTT6=
EXTT7=
EXTT8=
EXTT9=
PLAYORDER=
